<svg xmlns="http://www.w3.org/2000/svg" viewBox="0 0 278.86 212.92"><defs><style>.cls-1,.cls-4{fill:#919799;}.cls-2,.cls-3{fill:none;stroke:#919799;stroke-miterlimit:10;stroke-width:8px;}.cls-2{stroke-dasharray:12 6;}.cls-2,.cls-3,.cls-4{fill-rule:evenodd;}.cls-3{stroke-linecap:square;}</style></defs><title>Asset 3</title><g id="Layer_2" data-name="Layer 2"><g id="Layer_4" data-name="Layer 4"><path class="cls-1" d="M142.4,134.82a17.7,17.7,0,0,1-7.62-.94,20.91,20.91,0,0,1-10.46-8.06,17.63,17.63,0,0,1-2.82-7.15,17.57,17.57,0,0,1,7.63.92,21,21,0,0,1,10.45,8.09A17.78,17.78,0,0,1,142.4,134.82Z"/><path class="cls-1" d="M142.4,134.82a81.16,81.16,0,0,1,6.2-12.11q3.51-5.73,7.56-11.07a133.65,133.65,0,0,1,8.59-10.31,79.78,79.78,0,0,1,9.95-9.26,79.71,79.71,0,0,1-6.19,12.11Q165,109.93,161,115.25c-2.7,3.56-5.55,7-8.6,10.3A80.61,80.61,0,0,1,142.4,134.82Z"/><path class="cls-2" d="M224.1,129.12A79.8,79.8,0,0,1,85.38,182.94"/><path class="cls-3" d="M64.5,129.12a79.8,79.8,0,0,1,158.76-11.61"/><polygon class="cls-4" points="64.5 140.04 51.2 112.02 80.65 115.82 64.5 140.04"/><path class="cls-1" d="M5.75,95.35c1,.2,1.47.64,1.34,1.34a6.91,6.91,0,0,0-.94,1.23q-.68.83-1.41,4.65l-.53,2.77c-.19,1-.16,1.64.1,1.94a4.83,4.83,0,0,0,2,1q1.58.53,4.68,1.64a166.34,166.34,0,0,0,19.84,5q7.92,1.53,11,.34c.57.11.82.37.74.79-.41,2.15-1.91,3.28-4.47,3.39a30.83,30.83,0,0,1-6.21-.81q-6.87-1.32-10.31-2.31c-1.1-.25-3.63-1-7.61-2.16-3.16-1-5.71-1.61-7.63-2-2.34-.45-2.9-.58-1.71-.39-.62-.08-1,.13-1.07.62a18.6,18.6,0,0,0-.21,3.36,18.93,18.93,0,0,1-.2,3.37A3.09,3.09,0,0,1,.56,122c-.62-.54-.72-3.72-.32-9.54a105.3,105.3,0,0,1,1.2-10.53Q2.81,94.78,5.75,95.35Z"/><path class="cls-1" d="M15.69,84.21A1.83,1.83,0,0,1,17,86.83a3.27,3.27,0,0,1-1.59,1.74,2.6,2.6,0,0,1-2.22.23,1.88,1.88,0,0,1-1.24-2.74,3.12,3.12,0,0,1,1.52-1.73A2.68,2.68,0,0,1,15.69,84.21ZM24,88.63a15.94,15.94,0,0,1,3,1.68A16.75,16.75,0,0,0,30,92l12.93,4.87a15.53,15.53,0,0,0,3.73.73.78.78,0,0,1,.23.82c-.72,1.92-2,2.52-3.83,1.83L21.57,92.17a3.41,3.41,0,0,1,.14-1.62,3.38,3.38,0,0,1,1-1.3C23.2,88.69,23.65,88.48,24,88.63Z"/><path class="cls-1" d="M62.15,70a4.46,4.46,0,0,1-.32,2.14,2.91,2.91,0,0,1-1,.84l-2.9-1.73L55,69.46q-16.56-9.9-18.58-6.52-1.2,2,3.06,6.57a30.76,30.76,0,0,0,6.27,5.34l5.36,3.21a5.28,5.28,0,0,0,1.36.48,5.09,5.09,0,0,1,1.29.45,1.33,1.33,0,0,1,.51,1.1,2.17,2.17,0,0,1-.18,1.28,1.86,1.86,0,0,1-1.31.67,2.22,2.22,0,0,1-1.51-.1L40.49,75.49a23.25,23.25,0,0,0-4.7-2c-2.51-.83-4-.88-4.41-.17-.24.4-.09,1.29.44,2.67a23.23,23.23,0,0,0,10.25,11.6A29,29,0,0,0,44.91,89a30.87,30.87,0,0,1,2.78,1.38c1.07.64,1.34,1.41.81,2.3a1.73,1.73,0,0,1-1.21.81,9.94,9.94,0,0,1-2.71-1,27.76,27.76,0,0,1-2.79-1.3L29.14,83.63c-3.65-2.18-5.22-3.71-4.7-4.56a1.91,1.91,0,0,1,1.17-.8,1.65,1.65,0,0,1,1.38.07,19.58,19.58,0,0,1,2.75,2.08c1.45,1.16,2.36,1.87,2.73,2.14l.43-.11-3.39-4.79q-2.09-3.22-.9-5.2,1.66-2.79,8.9-1.23a13.38,13.38,0,0,0-1.88-3,15.23,15.23,0,0,1-2-3.18,3.58,3.58,0,0,1,.22-3.29c.58-1,1.86-1.65,3.86-2.06Q43.13,58.57,52.27,64Z"/><path class="cls-1" d="M71.24,51.82c1.31,1.28,1.64,3.31,1,6.09a12.17,12.17,0,0,1-2.92,5.87q-5.84,6-13.46-1.39a33.93,33.93,0,0,1-6-8.22q-3.45-6.49-1-9c1.39-1.44,3.64-2.3,6.74-2.6s5.38.25,6.81,1.65A8.89,8.89,0,0,1,65,51.16a10.17,10.17,0,0,1-2.86,7.07,5,5,0,0,1-1.56.71,4.7,4.7,0,0,0-1.6.75q-.57.59-.21.93,5.16,5,8.46,1.6a7.06,7.06,0,0,0,2-4.36,14.45,14.45,0,0,0-.19-4c-.19-1.29-.2-2,0-2.21C69.65,51,70.4,51,71.24,51.82ZM60,46.9A7.35,7.35,0,0,0,56.18,45a3.8,3.8,0,0,0-3.68,1q-1.74,1.78-.59,5.09a12.09,12.09,0,0,0,3,4.73,4.23,4.23,0,0,0,3,1.28,3.9,3.9,0,0,0,2.94-1.28,5.14,5.14,0,0,0,1.39-4.57A7.28,7.28,0,0,0,60,46.9Z"/><path class="cls-1" d="M92.07,1.22c.46.93.37,1.56-.26,1.87a7.65,7.65,0,0,0-1.54,0c-.71,0-2.23.55-4.55,1.71L83.19,6.06c-.9.45-1.39.87-1.48,1.26a5,5,0,0,0,.42,2.17q.54,1.57,1.54,4.71a164.16,164.16,0,0,0,8,18.83q3.59,7.22,6.41,8.95c.27.52.21.88-.17,1.06-2,1-3.77.48-5.41-1.49a31.19,31.19,0,0,1-3.13-5.42Q86.3,29.86,85,26.53c-.47-1-1.43-3.47-2.9-7.35Q80.34,14.53,79,11.91q-1.59-3.19-.73-1.6c-.31-.54-.69-.7-1.14-.47a18.46,18.46,0,0,0-2.8,1.88,18.46,18.46,0,0,1-2.8,1.88,3.1,3.1,0,0,1-3.8-.34q.09-1.23,7.39-6a104.36,104.36,0,0,1,9.09-5.44Q90.72-1.47,92.07,1.22Z"/><path class="cls-1" d="M118.66,11.24q.06.24.21,1c-.32.94-.71,1.47-1.2,1.6a1,1,0,0,1-1-.38c-.79-2.51-2.17-3.5-4.15-3q-1.93.51-1.93,8.14a27.59,27.59,0,0,0,1.09,7.14,44.45,44.45,0,0,0,2.09,6.75c.08.11.24.34.5.68a2.64,2.64,0,0,1,.48.81c.23.89-.26,1.49-1.47,1.81a1.91,1.91,0,0,1-2.61-1.58,4.08,4.08,0,0,1-.08-.92,3.47,3.47,0,0,0-.08-.91q-.87-3.33-2.91-9.9t-2.92-9.9c-.21-.8-.2-1.33,0-1.59a3.43,3.43,0,0,1,1.56-.7q1.5-.39,2,.63c.25.8.49,1.57.74,2.33.62-1.89,1-3,1.1-3.2a3.85,3.85,0,0,1,2.38-2.24,4.31,4.31,0,0,1,2.35.09,7.44,7.44,0,0,1,2.16,1.44A5.26,5.26,0,0,1,118.66,11.24Z"/><path class="cls-1" d="M145.28,32.48q.08.87-1.29,1a1.63,1.63,0,0,1-1.91-1.1,19.76,19.76,0,0,1-.27-2.42,2.25,2.25,0,0,0-.26-1,12.57,12.57,0,0,1-7.33,3.17A10.58,10.58,0,0,1,128.67,31c-2.09-1-3.2-2.37-3.35-4.11s.91-3.46,3.14-5.28a10.8,10.8,0,0,1,5.8-2.73l6.16-.51a1.83,1.83,0,0,0,.27-1.34,21.67,21.67,0,0,0-1.21-6.24q-1.41-3.45-4.71-3.18c-1.58.13-3,1.24-4.11,3.35a9.54,9.54,0,0,0-1.38,5.38c0,.08,0,.21,0,.37s0,.27,0,.31a.44.44,0,0,1-.46.54,2,2,0,0,1-1.43-.63,2.06,2.06,0,0,1-.86-1.25,12.62,12.62,0,0,1,.7-4.48,13.51,13.51,0,0,1,2-4.2A5,5,0,0,1,133,5a10.66,10.66,0,0,1,6.72,1.7,7.39,7.39,0,0,1,3.72,5.59Zm-4.11-9.63q-.21-2.49-4.07-2.17a12.82,12.82,0,0,0-5.27,1.5,4.39,4.39,0,0,0-2.59,4.35A2.92,2.92,0,0,0,131,29a5.8,5.8,0,0,0,3.18.55,8.59,8.59,0,0,0,4.94-2.16A5.25,5.25,0,0,0,141.17,22.85Z"/><path class="cls-1" d="M168.08,8.1q-.22,5.39-3.88,14.47-4,10.13-7.07,9.78-3.72-.42-5.95-8.65a64.3,64.3,0,0,1-2-11.67,32,32,0,0,1,.09-6.47,1.51,1.51,0,0,1,.64-1A1.54,1.54,0,0,1,151,4.18a4.47,4.47,0,0,1,2.1,1.5,9,9,0,0,0-.49,2.08,35,35,0,0,0,.47,9.3,52.71,52.71,0,0,0,2.26,9.05q.81,2.24,1.5,2.31c1.61.18,3.39-2.91,5.31-9.28A72.6,72.6,0,0,0,164.94,7c0-.25.25-.5.68-.74a1.74,1.74,0,0,1,1.07-.32C167.73,6.05,168.19,6.77,168.08,8.1Z"/><path class="cls-1" d="M186,32.69q-.83,2.63-5,3.62a12.26,12.26,0,0,1-6.56,0q-8-2.49-4.84-12.64a33.76,33.76,0,0,1,4.6-9.1q4.23-6,7.58-5,2.85.9,5.36,4.85c1.67,2.64,2.2,4.91,1.61,6.82a8.91,8.91,0,0,1-5,5.51,10.17,10.17,0,0,1-7.6.65,5,5,0,0,1-1.34-1.07,4.59,4.59,0,0,0-1.39-1.09c-.52-.16-.83-.08-.93.23q-2.13,6.87,2.4,8.28a7.17,7.17,0,0,0,4.78-.21,15,15,0,0,0,3.5-2c1.06-.76,1.72-1.1,2-1C186.06,30.88,186.35,31.58,186,32.69Zm-.7-12.26a7.34,7.34,0,0,0,0-4.28,3.8,3.8,0,0,0-2.59-2.81c-1.59-.49-3.2.1-4.81,1.78a12,12,0,0,0-2.87,4.8,4.26,4.26,0,0,0,.2,3.24,3.93,3.93,0,0,0,2.48,2,5.13,5.13,0,0,0,4.7-.82A7.3,7.3,0,0,0,185.3,20.43Z"/><path class="cls-1" d="M190,41a1.49,1.49,0,0,1-2.26.75q-2.51-1.16,2.26-11.41L201.83,4.86A16.38,16.38,0,0,0,202.48,3a13.3,13.3,0,0,1,.62-1.81,3.7,3.7,0,0,1,2.18,0,3.07,3.07,0,0,1,1.33,1.3,1.82,1.82,0,0,1,.17,1.73,5.54,5.54,0,0,1-1,1.35c-.57.65-.92,1.06-1,1.24a71.77,71.77,0,0,0-5.62,10.48q-5.13,11.19-5,10.77A69,69,0,0,0,190.24,39a3.12,3.12,0,0,0-.09.88A2.7,2.7,0,0,1,190,41Z"/><path class="cls-1" d="M229.37,58.38A8.64,8.64,0,0,1,227.23,60a11.24,11.24,0,0,1-8,1.18,15.78,15.78,0,0,1-7.45-3.6,12.09,12.09,0,0,1-4.43-11.72q.85-5.79,5.9-11.66A39.78,39.78,0,0,1,222.85,26a23,23,0,0,1,11.86-3.82,9.79,9.79,0,0,1,6.71,2.07q3.65,3.14,2.44,8.19a19.28,19.28,0,0,1-4.41,8,26.65,26.65,0,0,1-4.57,4.07q-3.74,2.71-5,1.62a1.93,1.93,0,0,1-.52-2.27c.3,0,.79.08,1.47.11,1.5-.08,3.57-1.66,6.2-4.72A18.54,18.54,0,0,0,240.57,33c1-3,.75-5.13-.79-6.46q-1.86-1.59-5.8-1.11a22,22,0,0,0-5.91,1.6q-6.73,2.94-13,10.29-4.2,4.88-5,9.24a9.45,9.45,0,0,0,3.54,9.3,10.75,10.75,0,0,0,5.62,2.57,11.36,11.36,0,0,0,6.12-.79,16.42,16.42,0,0,1,2.52-1.3,1.46,1.46,0,0,1,1.48.2A1.17,1.17,0,0,1,229.37,58.38Z"/><path class="cls-1" d="M231.52,80.79A2.69,2.69,0,0,1,230,79.58a2,2,0,0,1-.15-1.67l6.86-5.12q12.72-9.5,9.56-13.73-1.34-1.8-4.33-1.42a9.2,9.2,0,0,0-4.49,1.72,2.69,2.69,0,0,1-.72.34,3.43,3.43,0,0,0-.72.35l-6.41,4.78a21.82,21.82,0,0,0-2.27,2.08,21.17,21.17,0,0,1-2.21,2c-.54.39-1.1.19-1.7-.61a2.1,2.1,0,0,1-.26-2,3.46,3.46,0,0,1,1.22-1.82L255.46,41.8a2.28,2.28,0,0,1,.52-.55,1.06,1.06,0,0,1,1.66.33,3.86,3.86,0,0,1,.42,2c0,1-.1,1.6-.4,1.82a23.34,23.34,0,0,1-3.82,2.11,23.16,23.16,0,0,0-3.78,2.07c-.06.06-2.27,1.75-6.61,5.09,2,.41,3.29,1,3.79,1.62a12.88,12.88,0,0,1,1.92,4.57q1.46,5.7-6.26,11.46Z"/><path class="cls-1" d="M240.83,99.56c-.53.26-1,0-1.39-.85a1.63,1.63,0,0,1,.33-2.18,22.86,22.86,0,0,1,2.17-1.12,2.15,2.15,0,0,0,.81-.61,12.51,12.51,0,0,1-5.6-5.68,10.4,10.4,0,0,1-1-5.57c.17-2.31,1-3.85,2.62-4.61s3.56-.41,6,1a10.73,10.73,0,0,1,4.65,4.41l2.7,5.57a1.84,1.84,0,0,0,1.35-.24,21.74,21.74,0,0,0,5.37-3.37c1.81-1.72,2.24-3.57,1.27-5.55-.69-1.43-2.23-2.3-4.61-2.63a9.61,9.61,0,0,0-5.51.67l-.34.16-.28.14a.45.45,0,0,1-.67-.24,2.08,2.08,0,0,1,.07-1.56,2.11,2.11,0,0,1,.86-1.25,12.48,12.48,0,0,1,4.43-1,13.54,13.54,0,0,1,4.63.32A5.06,5.06,0,0,1,262,78.17a10.67,10.67,0,0,1,.84,6.89A7.39,7.39,0,0,1,259,90.55Zm7.49-7.32c1.5-.73,1.68-2.25.55-4.58a12.82,12.82,0,0,0-3.3-4.37,4.4,4.4,0,0,0-5-.84A2.89,2.89,0,0,0,238.9,85a5.76,5.76,0,0,0,.63,3.17,8.55,8.55,0,0,0,3.8,3.82A5.24,5.24,0,0,0,248.32,92.24Z"/><path class="cls-1" d="M265.28,107.45a5.94,5.94,0,0,1-1.25-2.11,9.23,9.23,0,0,0-1.07-2.16c-.45.08-2.68.7-6.69,1.84-3.12.89-5.22,1.52-6.28,1.91a12.76,12.76,0,0,0-2,.9,12.25,12.25,0,0,1-2.14.94,1.35,1.35,0,0,1-1.13-.33,1.87,1.87,0,0,1-.79-1c-.23-.8.41-1.67,1.91-2.62a13.67,13.67,0,0,1,3.29-1.46l12.51-3.56c.13-.29-.13-1.19-.77-2.69-.52-1.21-.23-2,.85-2.27q2.28-.65,3.49,4.27l11.1-2.32a1.64,1.64,0,0,0,.53-.31,1.86,1.86,0,0,1,.53-.31,1,1,0,0,1,.83.28,1.8,1.8,0,0,1,.59,1.07,2,2,0,0,1-1.5,2.7,36.81,36.81,0,0,1-4.63.86,37.31,37.31,0,0,0-4.57.85,9,9,0,0,0-1.35.51l1.12,3.26c.32,1.12,0,1.81-.84,2.06A1.81,1.81,0,0,1,265.28,107.45Z"/></g></g></svg>